# xmcd CD database file
#
# Track frame offsets:
#	150
#	12258
#	31756
#	50785
#	63640
#	75766
#	92186
#	104524
#	124831
#	133672
#	145780
#	158998
#	174902
#	188090
#	204020
#	218077
#	229042
#	246833
#
# Disc length: 3432 seconds
#
# Revision: 1
# Processed by: cddbd v1.5.2PL0 Copyright (c) Steve Scherf et al.
# Submitted via: CDex 1.51
#
DISCID=ed0d6612
DTITLE=Various Artist - My Sounds Country Disc 1
DYEAR=2006
DGENRE=Country
TTITLE0=Stand By Your Man
TTITLE1=Coward of the Country
TTITLE2=Ode To Billie Joe
TTITLE3=Crazy
TTITLE4=Mexican Joe
TTITLE5=The Devil Went Down To Georgia
TTITLE6=The Cattle Call
TTITLE7=Me And Bobby McGee
TTITLE8=Jamalaya
TTITLE9=Galveston
TTITLE10=I Want to Be a Cowboy's Sweetheart
TTITLE11=Come to Me
TTITLE12=Among My Souvenirs
TTITLE13=Games People Play
TTITLE14=Still Crazy After All These Years
TTITLE15=Cry Cry Cry
TTITLE16=Hey Mr. Dream Maker
TTITLE17=Rose Marie
EXTD=YEAR: 2006
EXTT0=
EXTT1=
EXTT2=
EXTT3=
EXTT4=
EXTT5=
EXTT6=
EXTT7=
EXTT8=
EXTT9=
EXTT10=
EXTT11=
EXTT12=
EXTT13=
EXTT14=
EXTT15=
EXTT16=
EXTT17=
PLAYORDER=
